<svg width="48" height="52" viewBox="0 0 48 52" fill="none" xmlns="http://www.w3.org/2000/svg">
<path d="M24.3669 46.1656C37.1152 46.1656 47.4497 35.831 47.4497 23.0828C47.4497 10.3345 37.1152 0 24.3669 0C11.6186 0 1.28412 10.3345 1.28412 23.0828C1.28412 35.831 11.6186 46.1656 24.3669 46.1656Z" fill="#D8ECFE"/>
<path d="M47.4495 23.0832C47.4495 35.8314 37.1154 46.1655 24.3672 46.1655C17.5767 46.1655 11.4707 43.2331 7.24673 38.5661C11.3421 42.2718 16.7731 44.5279 22.7297 44.5279C35.4779 44.5279 45.812 34.1938 45.812 21.4456C45.812 15.4859 43.5537 10.0529 39.8449 5.95746C44.5151 10.1814 47.4495 16.2895 47.4495 23.0832Z" fill="#C4E2FF"/>
<path d="M24.3669 39.1742C33.254 39.1742 40.4584 31.9698 40.4584 23.0828C40.4584 14.1957 33.254 6.99127 24.3669 6.99127C15.4798 6.99127 8.27542 14.1957 8.27542 23.0828C8.27542 31.9698 15.4798 39.1742 24.3669 39.1742Z" fill="#B3DAFE"/>
<path d="M40.4584 23.0832C40.4584 31.97 33.254 39.1744 24.3672 39.1744C19.5058 39.1744 15.1491 37.0196 12.199 33.6128C15.0216 36.0581 18.7032 37.5368 22.7296 37.5368C31.6164 37.5368 38.8208 30.3324 38.8208 21.4456C38.8208 17.4191 37.3421 13.7376 34.8967 10.915C38.3035 13.8651 40.4584 18.2218 40.4584 23.0832Z" fill="#8AC9FE"/>
<path d="M12.4399 51.9839L12.0972 51.9386C11.0836 51.8048 10.3705 50.8746 10.5044 49.861L13.6349 26.1626L17.6481 26.6927L14.5175 50.3911C14.3835 51.4046 13.4533 52.1177 12.4399 51.9839Z" fill="#685E68"/>
<path d="M17.6478 26.6927L14.5242 50.3383C14.3863 51.3812 13.429 52.1148 12.3861 51.9769L12.1499 51.9455C11.7485 51.8922 11.3933 51.7187 11.1164 51.4647C11.851 51.2808 12.4331 50.6642 12.5387 49.868L15.6351 26.4272L17.6478 26.6927Z" fill="#554E56"/>
<path d="M17.9697 8.80215L13.9364 8.26932C13.6396 8.23012 13.3673 8.4389 13.3281 8.73574L12.1172 17.9023C11.937 19.2662 12.5312 20.5748 13.5873 21.2962C13.9804 21.5648 14.1796 22.0395 14.1172 22.5115L13.6349 26.1626L17.6481 26.6927L18.1304 23.0416C18.1927 22.5696 18.5082 22.1629 18.9576 22.0056C20.1648 21.5831 21.0783 20.4737 21.2585 19.1099L22.4694 9.94326C22.5086 9.64643 22.2998 9.37408 22.003 9.33488L17.9697 8.80215Z" fill="#E2DEE2"/>
<path d="M22.4695 9.94316L21.2583 19.1101C21.0785 20.4738 20.1642 21.5836 18.9571 22.0059C18.5078 22.1626 18.1922 22.5692 18.1305 23.0415L17.6478 26.6928L15.6319 26.4263L16.145 22.4427C16.2067 21.9704 16.5223 21.5639 16.9716 21.4071C18.1787 20.9839 19.093 19.8751 19.2728 18.5114L20.484 9.34452C20.4934 9.27141 20.4881 9.19931 20.4693 9.13239L22.0034 9.33508C22.3002 9.37367 22.5081 9.64643 22.4695 9.94316Z" fill="#CBC4CC"/>
<path d="M17.1934 8.69966L16.1055 16.9343C16.0543 17.3283 15.7168 17.6157 15.3301 17.6157C15.2956 17.6157 15.2611 17.6136 15.2266 17.6094C14.7972 17.5519 14.4951 17.1579 14.5515 16.7295L15.6394 8.49473V8.49371L17.1934 8.69966Z" fill="#B5ADB6"/>
<path d="M20.2992 9.11032L19.2113 17.345C19.159 17.739 18.8226 18.0264 18.4359 18.0264C18.4014 18.0264 18.3669 18.0243 18.3324 18.0191C17.903 17.9626 17.6009 17.5687 17.6573 17.1392L18.7452 8.90448L20.2992 9.11032Z" fill="#B5ADB6"/>
<path d="M36.59 51.9514L36.2463 51.9881C35.2298 52.0969 34.3176 51.361 34.2088 50.3444L31.6657 26.5758L35.6907 26.1451L38.2338 49.9138C38.3425 50.9304 37.6065 51.8426 36.59 51.9514Z" fill="#685E68"/>
<path d="M36.5364 51.957L36.3002 51.982C35.8947 52.0249 35.505 51.9382 35.1737 51.7543C35.8498 51.4031 36.2762 50.6633 36.1905 49.8607L33.6763 26.3603L35.691 26.145L38.2283 49.8607C38.3401 50.9067 37.5825 51.8452 36.5364 51.957Z" fill="#554E56"/>
<path d="M35.6906 26.1452L31.6656 26.5759L31.354 23.6642C31.3024 23.1825 31.0679 22.739 30.6987 22.4254L29.8547 21.7084C29.4081 21.329 29.1629 20.7639 29.1908 20.1786L29.834 6.71214C29.8785 5.78194 30.5941 5.02295 31.5201 4.92384C32.5575 4.81285 33.4885 5.56381 33.5995 6.60124L35.6906 26.1452Z" fill="#E2DEE2"/>
<path d="M35.691 26.1451L33.6793 26.3604L31.5883 6.82066C31.5162 6.15185 31.1044 5.60216 30.5422 5.32625C30.815 5.10782 31.1514 4.9626 31.5204 4.92391C31.5883 4.9166 31.6562 4.91345 31.7231 4.91345C32.6771 4.91345 33.4954 5.63141 33.5999 6.60111L35.691 26.1451Z" fill="#CBC4CC"/>
<path d="M42.6704 3.06205C42.2721 4.33315 41.2378 6.64321 38.8261 7.54497C38.6291 7.61859 38.6291 7.90192 38.8261 7.97554C41.2379 8.8773 42.2722 11.1874 42.6704 12.4585C42.7378 12.6734 43.0433 12.6734 43.1107 12.4585C43.509 11.1874 44.5434 8.8773 46.9551 7.97554C47.152 7.90192 47.152 7.61859 46.9551 7.54497C44.5433 6.64321 43.5089 4.33315 43.1107 3.06205C43.0434 2.84707 42.7379 2.84707 42.6704 3.06205Z" fill="#FDB441"/>
<path d="M46.9551 7.97567C44.5433 8.87713 43.5091 11.1871 43.1112 12.4584C43.0435 12.6737 42.7378 12.6737 42.6701 12.4584C42.4926 11.8916 42.1895 11.1211 41.6949 10.3584C42.1404 9.40955 42.0787 8.4755 43.4168 7.97557C43.6136 7.90174 43.6136 7.61882 43.4168 7.54499C42.0787 7.04415 42.1404 6.1102 41.6949 5.16132C42.1895 4.39959 42.4926 3.62812 42.6701 3.06228C42.7378 2.847 43.0435 2.847 43.1112 3.06228C43.5091 4.33277 44.5433 6.64262 46.9551 7.54499C47.1519 7.61892 47.1519 7.90184 46.9551 7.97567Z" fill="#FEA613"/>
<path d="M3.16818 40.156C2.85215 41.1647 2.03122 42.998 0.117214 43.7137C-0.0390713 43.7721 -0.0390713 43.9971 0.117214 44.0554C2.03122 44.7711 2.85205 46.6043 3.16818 47.6131C3.22159 47.7837 3.46419 47.7837 3.51761 47.6131C3.83363 46.6044 4.65456 44.7712 6.56857 44.0554C6.72486 43.9971 6.72486 43.7721 6.56857 43.7137C4.65456 42.9981 3.83373 41.1648 3.51761 40.156C3.46409 39.9854 3.22159 39.9854 3.16818 40.156Z" fill="#FDB441"/>
<path d="M6.56847 44.0551C4.65446 44.7705 3.83373 46.6037 3.51791 47.6126C3.46419 47.7834 3.22159 47.7834 3.16787 47.6126C3.02702 47.1628 2.78645 46.5513 2.39386 45.9461C2.74735 45.193 2.69841 44.4518 3.76041 44.055C3.9166 43.9964 3.9166 43.7719 3.76041 43.7133C2.69841 43.3158 2.74735 42.5746 2.39386 41.8215C2.78645 41.217 3.02702 40.6047 3.16787 40.1557C3.22159 39.9849 3.46419 39.9849 3.51791 40.1557C3.83373 41.164 4.65446 42.9972 6.56847 43.7132C6.72465 43.772 6.72465 43.9965 6.56847 44.0551Z" fill="#FEA613"/>
</svg>
