<svg width="273" height="544" viewBox="0 0 273 544" fill="none" xmlns="http://www.w3.org/2000/svg">
<path d="M185.099 35.1069C182.898 31.2529 177.509 30.3292 174.958 26.6981C172.008 22.5255 173.762 16.1711 170.477 12.2534C168.323 10.1184 165.413 8.91684 162.378 8.90895C159.374 8.91117 156.379 8.58001 153.449 7.92155C148.267 6.32897 144.52 1.32826 139.226 0.165669C136.373 -0.313409 133.442 0.254622 130.974 1.76496C128.507 3.2753 126.669 5.62603 125.801 8.3834C125.492 9.41717 125.331 10.4896 125.323 11.5686C123.966 11.5688 122.624 11.8523 121.383 12.4008C120.142 12.9493 119.029 13.7507 118.116 14.7537C116.203 16.9037 115.326 19.8182 113.333 21.9204C111.34 24.0226 108.247 25.3126 106.588 27.8129C105.735 29.2222 105.192 30.7965 104.994 32.4314C104.101 37.7825 104.611 43.675 107.96 47.9432C111.308 52.2113 118.02 54.0428 122.309 50.7939C122.309 50.7939 152.604 65.1272 158.806 68.9493C161.923 70.8076 165.53 71.6804 169.152 71.453C172.775 71.2256 176.244 69.9087 179.103 67.6753C179.736 67.2509 180.275 66.7011 180.687 66.06C181.098 65.419 181.373 64.7003 181.495 63.9486C181.333 62.452 180.878 61.0018 180.156 59.6805C178.737 55.5716 181.065 51.208 183.137 47.3698C185.21 43.5317 187.251 38.8973 185.099 35.1069Z" fill="#333333"/>
<path d="M112.392 38.1647C114.72 23.5448 129.309 -0.933208 155.219 14.1326C163.382 18.9104 166.858 27.5103 168.5 36.4288C169.664 42.6876 167.448 100.674 167.448 100.674C165.63 123.448 130.043 126.888 127.747 100.514L128.448 84.1267C109.666 78.1545 109.793 54.6002 112.392 38.1647Z" fill="#F9C4B4"/>
<path d="M128.448 84.1744C128.448 84.1744 139.051 87.71 159.061 75.2878C151.203 85.8855 140.321 93.8629 127.842 98.1732L128.448 84.1744Z" fill="#333333"/>
<path d="M181.942 45.9047C181.594 43.1984 180.196 40.7367 178.049 39.0505C175.901 37.3643 173.176 36.5886 170.462 36.8906C169.122 37.0256 167.823 37.4243 166.639 38.0638C165.454 38.7033 164.409 39.5708 163.562 40.6163C162.716 41.6618 162.085 42.8645 161.707 44.1549C161.328 45.4453 161.209 46.7978 161.357 48.1343C161.7 50.8412 163.098 53.304 165.247 54.9884C167.396 56.6728 170.123 57.4432 172.837 57.1324C174.176 56.9994 175.475 56.6025 176.659 55.9647C177.843 55.3269 178.889 54.4608 179.736 53.4166C180.582 52.3724 181.213 51.1708 181.592 49.8813C181.971 48.5919 182.089 47.2403 181.942 45.9047Z" fill="#F9C4B4"/>
<path d="M173.491 42.5921C172.749 42.8411 172.038 43.1723 171.37 43.5795C170.169 44.3233 169.133 45.3042 168.325 46.4621C167.896 47.1122 167.538 47.8063 167.257 48.5324C166.877 47.7126 166.821 46.7804 167.097 45.9206C167.358 45.0393 167.848 44.2425 168.516 43.6113C169.183 42.9913 169.994 42.5478 170.876 42.3214C171.752 42.0888 172.682 42.1851 173.491 42.5921Z" fill="#251B2D"/>
<path d="M142.368 33.9603C142.368 34.8681 140.949 35.5529 139.322 35.4095C137.696 35.2662 136.42 34.454 136.484 33.5462C136.548 32.6384 137.919 31.9536 139.545 32.097C141.172 32.2403 142.431 33.0525 142.368 33.9603Z" fill="#371C09"/>
<path d="M123.585 33.387C123.505 34.2947 122.134 34.9795 120.508 34.7566C118.882 34.5336 117.654 33.7055 117.734 32.7977C117.813 31.8899 119.184 31.2051 120.795 31.4281C122.405 31.651 123.665 32.4314 123.585 33.387Z" fill="#371C09"/>
<g style="mix-blend-mode:soft-light" opacity="0.46">
<path d="M149.287 69.1564C155.249 69.1564 160.082 64.3292 160.082 58.3746C160.082 52.42 155.249 47.5928 149.287 47.5928C143.326 47.5928 138.493 52.42 138.493 58.3746C138.493 64.3292 143.326 69.1564 149.287 69.1564Z" fill="#333333"/>
</g>
<path d="M120.014 42.1939C120.014 43.3087 120.412 44.2484 121.05 44.2961C121.688 44.3439 122.294 43.468 122.357 42.3373C122.421 41.2065 121.975 40.2828 121.321 40.2351C120.667 40.1873 120.093 41.0632 120.014 42.1939Z" fill="#333333" stroke="#333333" stroke-width="0.49" stroke-miterlimit="10"/>
<path d="M136.66 42.7673C136.66 43.8821 137.042 44.8217 137.696 44.8695C138.35 44.9173 138.94 44.0413 139.003 42.9106C139.067 41.7799 138.621 40.8562 137.967 40.8084C137.313 40.7606 136.723 41.6365 136.66 42.7673Z" fill="#333333" stroke="#333333" stroke-width="0.49" stroke-miterlimit="10"/>
<g style="mix-blend-mode:soft-light" opacity="0.46">
<path d="M111.563 44.7739C110.711 51.9534 111.099 59.2256 112.711 66.2738C115.454 65.9747 117.978 64.6378 119.765 62.5376C121.552 60.4375 122.466 57.7336 122.319 54.9815C122.172 52.2293 120.975 49.6379 118.975 47.7395C116.974 45.8411 114.322 44.7799 111.563 44.7739Z" fill="#333333"/>
</g>
<path d="M134.507 57.3872C134.206 58.3931 133.625 59.2931 132.833 59.9831C131.994 60.7854 130.885 61.2455 129.724 61.2731C128.526 61.2627 127.381 60.7822 126.535 59.9353C125.754 59.2109 125.238 58.2469 125.068 57.1961C125.961 57.7376 126.662 58.2472 127.491 58.6135C128.163 58.9594 128.904 59.1499 129.66 59.1709C130.434 59.1474 131.194 58.963 131.892 58.6294C132.753 58.295 133.534 57.8013 134.507 57.3872Z" fill="#333333"/>
<path d="M128.289 36.8588C128.42 39.2652 128.35 41.6783 128.081 44.0732C127.954 45.2517 127.826 46.4461 127.635 47.6247C127.444 48.8032 127.236 49.9817 126.997 51.1602L126.439 50.3639C128.207 50.8395 129.939 51.4409 131.621 52.1635C129.791 52.1541 127.963 52.0157 126.152 51.7494H125.53V51.0328C125.626 49.8383 125.738 48.6598 125.897 47.4654C126.056 46.2709 126.232 45.1084 126.439 43.9299C126.855 41.525 127.474 39.1595 128.289 36.8588Z" fill="#251B2D"/>
<path d="M134.507 57.3872C134.206 58.3931 133.625 59.2931 132.833 59.9831C131.994 60.7854 130.885 61.2455 129.724 61.2731C128.526 61.2627 127.381 60.7822 126.535 59.9353C125.754 59.2109 125.238 58.2469 125.068 57.1961C125.961 57.7376 126.662 58.2472 127.491 58.6135C128.163 58.9594 128.904 59.1499 129.66 59.1709C130.434 59.1474 131.194 58.963 131.892 58.6294C132.753 58.295 133.534 57.8013 134.507 57.3872Z" fill="#333333"/>
<path d="M170.892 28.3066C169.502 24.7789 167.469 21.5391 164.897 18.7511C162.88 16.9057 160.654 15.3022 158.264 13.9734C156.577 12.9043 154.825 11.9416 153.018 11.0908C150.964 10.2131 148.828 9.54094 146.641 9.08414C143.183 8.15396 139.583 7.86783 136.022 8.24007C132.931 8.64229 130.057 10.0466 127.842 12.2375C124.462 14.6562 121.595 17.7198 119.408 21.2515C117.973 23.2741 116.569 25.2966 115.166 27.3192C116.069 27.1241 116.942 26.8137 117.765 26.3955C118.979 25.6764 120.103 24.8156 121.114 23.8315C123.942 21.4823 126.181 18.5044 127.651 15.136C128.509 17.5241 130.209 19.5175 132.434 20.7418C135.28 22.1451 138.455 22.7506 141.618 22.4937C144.249 22.3822 146.991 21.9363 149.463 22.8918C150.694 23.4403 151.803 24.2284 152.726 25.2101C153.648 26.1918 154.366 27.3473 154.836 28.6092C155.774 31.1393 156.39 33.7771 156.67 36.4607C156.711 37.6509 157.136 38.796 157.881 39.7255C158.44 40.2237 159.133 40.5452 159.874 40.6491C163.063 41.2065 166.013 39.3592 168.484 37.3207C169.345 36.7492 170.085 36.0131 170.659 35.1548C171.234 34.2965 171.633 33.333 171.833 32.3199C171.867 30.9239 171.543 29.5423 170.892 28.3066Z" fill="#333333"/>
<path d="M48.8856 169.664C67.5246 143.196 115.613 104.623 115.613 104.623L127.922 114.768L92.4297 189.906C92.4297 189.906 68.7523 235.024 52.4252 236.171C27.2012 237.954 24.666 204.016 48.8856 169.664Z" fill="#F9C4B4"/>
<g style="mix-blend-mode:soft-light" opacity="0.46">
<path d="M115.023 141.38L92.8283 123.798L60.0785 156.08L90.8831 191.116L115.023 141.38Z" fill="#333333"/>
</g>
<path d="M99.9235 174.681L61.354 143.737C61.354 143.737 106.142 90.1148 136.293 101.534L124.733 122.572L99.9235 174.681Z" fill="#BAD2C8"/>
<path d="M42.5397 143.132L38.8406 144.724C30.5814 148.164 22.3062 151.535 14.0151 154.837C18.5752 182.405 26.6591 214.718 34.8864 226.504C45.1865 241.267 72.7065 227.029 71.415 212.76C71.0323 207.281 51.915 164.058 42.5397 143.132Z" fill="#F9C4B4"/>
<path d="M48.5348 152.624C44.519 145.815 41.0943 138.675 38.2985 131.283C38.729 130.136 41.4874 117.364 40.1162 113.988C38.1231 108.732 28.684 119.928 28.6362 122.81C28.3492 120.119 25.8778 98.014 21.8279 98.3803C19.3884 98.6032 20.5524 113.526 20.5524 113.526C20.5524 113.526 13.7282 94.2714 11.7192 95.0359C9.7102 95.8003 15.0037 114.497 15.0037 114.497C15.0037 114.497 8.036 100.546 5.80378 101.565C3.89045 102.425 9.12024 117.396 9.12024 117.396C9.12024 117.396 2.12062 109.544 0.271074 110.516C-1.57848 111.487 5.34139 123.893 6.34589 127.636C7.0315 130.184 10.316 155.825 14.6689 169.744C15.211 169.473 39.3668 157.608 48.5348 152.624Z" fill="#FC9B27"/>
<path d="M48.5348 152.624C48.5348 152.624 50.2568 153.691 49.7306 154.423C49.2044 155.156 16.072 172.563 15.1312 171.018L14.1746 169.425L48.5348 152.624Z" fill="#FCB970"/>
<path d="M52.6644 165.094L61.1787 183.392" stroke="#333333" stroke-width="1.1" stroke-miterlimit="10" stroke-linecap="round"/>
<path d="M161.692 227.22C155.123 209.192 107.848 220.531 107.848 220.531C107.848 220.531 85.5258 300.845 79.8177 383.819C73.2645 480.234 98.9509 587.94 98.9509 587.94C114.305 591.205 142.128 589.947 142.128 589.947V438.333C142.017 437.999 147.087 340.564 154.294 311.786C164.132 272.561 161.692 227.22 161.692 227.22Z" fill="#3F5B99"/>
<path d="M202.781 228.287C196.212 210.243 143.229 221.2 143.229 221.2C143.229 221.2 135.814 245.089 134.459 290.509C133.965 306.865 140.103 370.282 139.386 380.809C132.833 477.24 157.148 587.717 157.148 587.717C172.503 590.902 200.326 589.708 200.326 589.708V438.094C200.214 437.76 205.268 340.325 212.475 311.548C222.393 272.274 202.781 228.287 202.781 228.287Z" fill="#435CA1"/>
<g style="mix-blend-mode:soft-light" opacity="0.46">
<path d="M182.723 259.04C163.813 257.256 144.456 259.597 125.929 263.547C118.531 265.14 111.228 266.987 103.974 269.057C104.927 271.899 106.57 274.459 108.757 276.511C116.729 283.805 129.182 281.288 139.992 281.798C164.164 283.12 185.035 302.39 209.238 301.897C210.994 301.868 212.744 301.687 214.468 301.355C215.834 289.523 215.485 277.557 213.432 265.824C203.447 262.549 193.16 260.276 182.723 259.04Z" fill="#333333"/>
</g>
<path d="M185.529 279.553C185.529 279.553 174.368 329.225 194.059 332.426" stroke="#6693B9" stroke-width="1.2" stroke-miterlimit="10" stroke-linecap="round"/>
<path d="M198.348 279.027C194.139 334.337 194.346 333.461 190.87 361.172C187.682 386.781 183.935 480.122 191.939 555.34" stroke="#6693B9" stroke-width="1.2" stroke-miterlimit="10" stroke-linecap="round"/>
<path d="M103.288 273.15C103.288 273.15 102.73 323.237 86.3868 326.247" stroke="#6693B9" stroke-width="1.2" stroke-miterlimit="10" stroke-linecap="round"/>
<path d="M135.224 268.484C135.224 268.484 129.915 449.051 142.782 494.535" stroke="#6693B9" stroke-width="1.2" stroke-miterlimit="10" stroke-linecap="round"/>
<path d="M146.72 270.554C146.72 270.554 150.228 332.267 135.655 326.295" stroke="#6693B9" stroke-width="1.2" stroke-miterlimit="10" stroke-linecap="round"/>
<path d="M166.731 97.5999L128.002 99.1925L120.029 99.8295C107.816 105.786 106.078 115.596 101.789 128.209C91.5209 158.468 93.4661 200.417 96.5433 228.415C96.5433 228.415 86.1635 263.053 93.1153 270.284C101.598 279.107 128.002 266.175 140.183 268.484C151.982 270.73 169.074 277.944 189.978 278.485C242.977 279.887 213.001 251.189 212.81 240.152C223.269 220.707 217.864 171.91 203.482 133.799C198.237 119.896 190.424 106.264 177.541 99.2562C174.83 97.7592 168.963 97.5999 166.731 97.5999Z" fill="#BAD2C8"/>
<path d="M120.269 99.8295C120.269 99.8295 102.427 225.548 107.322 273.421C107.561 275.778 116.617 271.558 116.617 271.558C114.018 233.113 126.774 99.2881 126.774 99.2881L120.269 99.8295Z" fill="#2D458B"/>
<path d="M175.867 98.1892C175.867 98.1892 190.217 230.867 185.338 278.788C185.099 281.129 176.042 276.925 176.042 276.925C178.641 238.48 169.361 97.6795 169.361 97.6795L175.867 98.1892Z" fill="#2D458B"/>
<path d="M231.13 194.126C223.828 162.609 193.788 108.796 193.788 108.796L178.561 113.574L183.153 196.547C183.153 196.547 188.112 247.223 202.781 254.437C225.502 265.554 240.633 235.056 231.13 194.126Z" fill="#F9C4B4"/>
<g style="mix-blend-mode:soft-light" opacity="0.46">
<path d="M180.491 143.084L207.676 135.121L225.853 177.341L184.126 198.219L180.491 143.084Z" fill="#333333"/>
</g>
<path d="M181.957 179.602L229.344 165.428C229.344 165.428 208.027 98.9058 175.819 98.1892L178.561 122.078L181.957 179.602Z" fill="#BAD2C8"/>
<path d="M83.8677 180.637C83.6126 179.857 73.5516 166.065 73.5516 166.065C73.5516 166.065 74.2213 154.614 85.6853 154.344C97.1493 154.073 196.403 151.748 170.892 177.771C145.381 203.793 83.8677 180.637 83.8677 180.637Z" fill="#3F1F1F"/>
<path d="M168.755 171.448C168.389 164.982 170.509 158.707 172.901 152.64C181.431 131.092 194.314 110.532 213.432 97.4088C191.207 117.385 177.661 145.233 175.675 175.031" fill="#698937"/>
<path d="M172.008 172.26C180.766 146.518 198.013 124.508 220.926 109.831L210.992 120.74C198.683 134.261 185.673 149.407 185.067 167.689" fill="#698937"/>
<path d="M107.609 202.742C100.771 200.56 94.9339 196.017 91.1438 189.928C87.3538 183.839 85.8581 176.6 86.9249 169.51C87.9916 162.419 91.5511 155.939 96.9655 151.231C102.38 146.524 109.296 143.895 116.474 143.817C120.572 143.817 124.717 144.613 128.751 143.817C134.794 142.686 140.598 138.099 146.465 139.947C148.554 140.6 150.324 142.017 152.365 142.797C157.483 144.756 163.366 142.415 168.628 143.912C173.89 145.409 177.509 150.521 179.996 155.522C182.362 159.999 183.947 164.846 184.684 169.855C186.9 188.027 171.929 205.099 154.198 210.084C136.468 215.069 115.135 209.033 100.29 199.398" fill="#FC9A54"/>
<path d="M131.031 148.578C128.319 143.697 125.272 139.009 121.911 134.548C121.431 133.922 121.111 133.189 120.977 132.411C120.844 131.634 120.901 130.836 121.144 130.086C121.387 129.336 121.809 128.656 122.373 128.104C122.937 127.553 123.626 127.146 124.382 126.919C124.775 126.805 125.187 126.767 125.594 126.808C127.587 126.967 128.879 128.942 129.74 130.757C132.437 136.495 133.976 142.708 134.268 149.04" fill="#58302F"/>
<g style="mix-blend-mode:overlay" opacity="0.34">
<g style="mix-blend-mode:overlay" opacity="0.34">
<path d="M117.462 200.688C117.016 200.927 114.752 198.044 112.823 192.534C108.948 181.188 109.431 168.81 114.178 157.8C114.948 156.021 115.98 154.368 117.239 152.894C118.365 151.652 119.665 150.58 121.098 149.709C123.099 148.482 125.285 147.584 127.571 147.05C129.166 146.699 130.09 146.699 130.186 146.954C130.282 147.209 129.516 147.75 128.177 148.547C126.296 149.586 124.504 150.78 122.82 152.114C120.47 154.008 118.702 156.525 117.718 159.376C116.378 163.02 115.421 166.794 114.864 170.636C113.892 177.689 114.161 184.857 115.661 191.817C116.761 197.136 118.052 200.401 117.462 200.688Z" fill="#333333"/>
</g>
<g style="mix-blend-mode:overlay" opacity="0.34">
<path d="M148.57 198.06C148.044 198.187 146.8 195.225 146.13 190.097C145.796 187.597 145.588 184.603 145.429 181.338C145.269 178.073 145.11 174.538 144.632 170.938C144.237 167.587 143.429 164.297 142.224 161.144C141.2 158.613 139.809 156.247 138.094 154.121C136.612 152.21 135.32 150.601 134.571 149.343C133.821 148.085 133.566 147.352 133.789 147.177C134.013 147.002 134.682 147.416 135.783 148.276C137.351 149.478 138.857 150.759 140.295 152.114C142.55 154.243 144.394 156.77 145.732 159.567C147.302 162.98 148.324 166.619 148.761 170.349C149.196 173.963 149.366 177.604 149.271 181.242C149.271 184.428 149.128 187.374 149.064 189.89C149 194.891 149.192 197.933 148.57 198.06Z" fill="#333333"/>
</g>
<g style="mix-blend-mode:overlay" opacity="0.34">
<path d="M174.288 201.994C173.714 201.994 172.853 197.519 171.913 190.193C171.45 186.53 170.956 182.23 170.493 177.309C170.226 172.199 169.387 167.134 167.99 162.211C167.207 159.881 165.99 157.719 164.403 155.841C162.896 154.118 161.058 152.715 158.998 151.716C155.298 149.982 151.283 149.018 147.199 148.881C143.627 148.69 140.646 148.881 138.573 148.786C136.5 148.69 135.384 148.658 135.304 148.371C135.224 148.085 136.372 147.671 138.397 147.177C141.293 146.501 144.244 146.091 147.215 145.951C151.808 145.659 156.405 146.444 160.64 148.244C163.232 149.379 165.557 151.044 167.464 153.133C169.463 155.395 170.982 158.039 171.928 160.905C173.454 166.161 174.258 171.598 174.32 177.07C174.575 181.943 174.767 186.323 174.846 190.018C175.038 197.423 174.862 201.946 174.288 201.994Z" fill="#333333"/>
</g>
<g style="mix-blend-mode:overlay" opacity="0.34">
<path d="M129.437 146.126C129.437 146.763 125.435 146.492 119.503 147.846C116.068 148.63 112.753 149.873 109.65 151.541C105.916 153.359 102.755 156.169 100.514 159.663C98.4089 163.358 97.8189 167.801 97.3247 171.862C96.8304 175.923 96.384 179.666 96.0173 182.787C95.3157 189.03 94.662 192.916 94.088 192.884C93.514 192.852 93.1154 188.95 93.0835 182.612C93.0835 179.427 93.1632 175.668 93.514 171.464C93.6479 166.646 94.8227 161.914 96.958 157.593C98.2735 155.353 99.9989 153.382 102.044 151.78C103.871 150.344 105.856 149.12 107.96 148.133C111.475 146.453 115.248 145.376 119.121 144.947C125.626 144.263 129.564 145.648 129.437 146.126Z" fill="#333333"/>
</g>
</g>
<path d="M75.2258 132.446C71.4663 126.356 69.6099 119.285 69.8939 112.136C70.1779 104.987 72.5894 98.0855 76.8202 92.3125C80.4398 105.951 80.5987 120.275 77.2826 133.99" fill="#446815"/>
<path d="M72.7702 136.554C65.808 132.113 60.1776 125.874 56.4754 118.498C52.7731 111.122 51.1368 102.883 51.7396 94.6536C61.6786 105.831 69.5548 118.681 75.0024 132.605" fill="#698937"/>
<path d="M70.6816 133.975C66.1877 133.762 61.8516 132.255 58.1963 129.635C54.541 127.015 51.7227 123.395 50.0814 119.211C60.3684 120.142 69.9827 124.718 77.1869 132.111" fill="#446815"/>
<path d="M74.8271 135.615C70.6873 131.378 67.6293 126.209 65.9115 120.543C64.1937 114.877 63.8664 108.881 64.9575 103.062C72.502 110.6 76.8672 120.74 77.1549 131.395" fill="#88AA4D"/>
<path d="M74.6676 132.477C70.6815 130.885 66.3606 135.121 66.0736 139.373C65.7866 143.626 68.1304 147.591 70.4583 151.174C80.9497 167.355 92.5891 182.771 104.213 198.172C106.158 197.471 106.046 194.716 105.536 192.709C100.654 173.062 94.0653 153.879 85.8447 135.376C85.2117 133.503 84.062 131.847 82.5282 130.598C81.7456 130.016 80.7637 129.768 79.7982 129.908C78.8326 130.049 77.9623 130.566 77.3782 131.347" fill="#F78131"/>
<g opacity="0.36">
<g style="mix-blend-mode:overlay" opacity="0.36">
<g style="mix-blend-mode:overlay" opacity="0.36">
<path d="M76.5491 144.151C77.0753 145.17 75.7519 146.89 73.5038 147.814C71.2556 148.738 69.1031 148.435 68.7205 147.352C68.3378 146.269 69.8047 144.82 71.9093 143.96C74.014 143.1 76.023 143.132 76.5491 144.151Z" fill="#333333"/>
</g>
</g>
<g style="mix-blend-mode:overlay" opacity="0.36">
<g style="mix-blend-mode:overlay" opacity="0.36">
<path d="M84.3938 151.493C84.2822 150.346 85.6534 149.279 87.3594 148.738C89.0655 148.196 90.8035 148.308 91.3775 149.327C91.9515 150.346 90.7875 152.034 88.6032 152.703C86.4188 153.372 84.4895 152.624 84.3938 151.493Z" fill="#333333"/>
</g>
</g>
<g style="mix-blend-mode:overlay" opacity="0.36">
<g style="mix-blend-mode:overlay" opacity="0.36">
<path d="M88.3002 164.234C88.8104 165.269 87.9972 166.718 86.4825 167.419C84.9678 168.119 83.2936 167.976 82.7834 166.957C82.2732 165.938 83.0704 164.472 84.6011 163.772C86.1318 163.071 87.774 163.214 88.3002 164.234Z" fill="#333333"/>
</g>
</g>
<g style="mix-blend-mode:overlay" opacity="0.36">
<g style="mix-blend-mode:overlay" opacity="0.36">
<path d="M80.0091 130.136C79.9294 131.299 77.6972 132.111 75.2258 132.955C72.7544 133.799 70.4425 134.42 69.6453 133.513C69.2945 133.067 69.4858 132.255 70.2352 131.347C71.2369 130.251 72.5142 129.442 73.9343 129.006C75.3437 128.517 76.8602 128.423 78.319 128.735C79.3235 129.022 80.0091 129.563 80.0091 130.136Z" fill="#333333"/>
</g>
</g>
</g>
<path d="M80.009 130.136C79.9293 131.299 77.6971 132.111 75.2257 132.955C72.7543 133.799 70.4424 134.42 69.6452 133.513C69.2944 133.067 69.4857 132.254 70.2351 131.347C71.2368 130.251 72.5141 129.442 73.9342 129.006C75.3436 128.517 76.86 128.423 78.3189 128.735C79.3234 129.022 80.009 129.563 80.009 130.136Z" fill="#333333"/>
<path d="M84.7923 212.377C106.281 218.907 128.766 221.544 151.185 220.165C162.952 219.417 176.138 216.677 182.452 206.453C186.039 200.656 186.661 193.489 187.235 186.625L188.335 172.292C188.479 170.349 188.335 167.849 186.518 167.196C185.906 167.085 185.278 167.1 184.672 167.239C184.066 167.379 183.495 167.641 182.994 168.008C164.004 178.185 141.379 177.022 119.998 175.621C104.053 174.554 88.5233 171.926 73.5356 166.065C73.6313 166.065 69.4538 207.456 84.7923 212.377Z" fill="#58302F"/>
<path d="M156.016 181.115C158.232 173.932 161.118 166.782 166.141 161.16C171.163 155.538 178.641 151.716 186.119 152.671C194.091 153.691 200.357 159.695 205.077 166.113C212.915 176.784 217.918 189.266 219.618 202.392C220.093 204.944 220.006 207.569 219.363 210.084C219.015 211.337 218.33 212.471 217.383 213.364C216.436 214.257 215.263 214.874 213.99 215.148C209.956 215.706 206.863 211.788 204.694 208.348L193.214 190.177C190.759 185.85 187.723 181.88 184.19 178.376C182.416 176.628 180.306 175.258 177.988 174.346C175.67 173.435 173.191 173.002 170.701 173.072C165.742 173.471 160.911 177.165 160.289 182.086" fill="#446815"/>
<g style="mix-blend-mode:overlay">
<g style="mix-blend-mode:overlay">
<path d="M211.933 196.643C211.71 196.786 209.254 193.235 205.444 187.39C203.53 184.428 201.298 181.019 198.827 177.086C196.324 172.881 193.039 169.195 189.148 166.224C187.255 164.783 185.059 163.789 182.725 163.317C180.391 162.846 177.981 162.908 175.675 163.501C171.931 164.823 168.57 167.043 165.886 169.967C161.102 174.856 159.045 178.774 158.758 178.599C158.98 177.59 159.403 176.637 160.002 175.796C161.381 173.368 163.028 171.103 164.913 169.043C167.649 165.798 171.182 163.318 175.165 161.845C177.619 161.063 180.233 160.926 182.755 161.447C185.419 162.003 187.946 163.086 190.185 164.632C194.283 167.732 197.706 171.633 200.246 176.098C202.685 180.048 204.774 183.631 206.623 186.641C210.099 192.645 212.156 196.515 211.933 196.643Z" fill="#333333"/>
</g>
<g style="mix-blend-mode:overlay">
<path d="M190.568 181.497C190.328 181.354 190.775 180.271 190.95 178.487C191.156 176.152 190.834 173.801 190.009 171.607C189.122 169.4 188.056 167.27 186.821 165.237C185.864 163.644 185.338 162.514 185.561 162.354C185.784 162.195 186.661 162.991 187.905 164.472C189.581 166.421 190.912 168.64 191.843 171.034C192.8 173.513 192.973 176.226 192.337 178.806C191.7 180.653 190.759 181.577 190.568 181.497Z" fill="#333333"/>
</g>
<g style="mix-blend-mode:overlay">
<path d="M199.783 192.12C199.257 192.12 199.177 188.457 199.162 184.045C199.146 179.634 199.161 176.082 199.751 175.987C200.341 175.891 201.043 179.538 201.043 184.045C201.043 188.552 200.294 192.167 199.783 192.12Z" fill="#333333"/>
</g>
<g style="mix-blend-mode:overlay">
<path d="M199.688 162.8C199.688 163.326 196.77 163.708 193.198 163.835C189.627 163.963 186.693 163.835 186.645 163.262C186.597 162.689 189.499 162.084 193.135 161.956C196.77 161.829 199.704 162.291 199.688 162.8Z" fill="#333333"/>
</g>
<g style="mix-blend-mode:overlay">
<path d="M208.298 176.719C208.298 177.229 206.145 177.611 203.642 176.831C201.139 176.051 199.576 174.506 199.879 174.092C200.182 173.678 201.984 174.346 204.2 175.031C206.416 175.716 208.314 176.114 208.298 176.719Z" fill="#333333"/>
</g>
</g>
<path d="M153.688 176.051C153.688 176.051 166.157 174.458 169.856 173.295L169.011 185.256L152.444 186.036L153.688 176.051Z" fill="#58302F"/>
<path d="M221.181 218.461C216.573 215.578 171.115 205.72 148.458 200.943C145.078 210.498 141.512 219.958 137.76 229.322C163.191 242.318 195.877 255.743 210.801 256.062C228.818 256.349 233.49 225.819 221.181 218.461Z" fill="#F9C4B4"/>
<path d="M184.11 208.826L204.774 212.791" stroke="#333333" stroke-width="1.1" stroke-miterlimit="10" stroke-linecap="round"/>
<path d="M158.519 201.389C146.194 198.745 135.224 196.611 135.224 196.611C134.666 195.512 127.81 182.612 124.462 181.258C119.264 179.14 121.464 192.024 123.569 193.999C121.385 192.406 102.841 181.704 100.226 183.647C98.2653 185.112 110.798 195.225 110.798 195.225C110.798 195.225 92.047 187.119 91.2179 189.11C90.3888 191.1 107.736 199.939 107.736 199.939C107.736 199.939 92.7645 195.544 91.9832 197.869C91.3295 199.86 105.871 206.23 105.871 206.23C105.871 206.23 95.3315 205.991 94.7097 208.014C94.0879 210.036 110 213.922 113.11 215.133C121.528 220.531 134.778 231.504 147.948 237.795C148.203 237.238 155.888 211.438 158.519 201.389Z" fill="#FC9B27"/>
<path d="M158.519 201.389C158.519 201.389 160.48 200.847 160.656 201.739C160.831 202.631 151.089 238.703 149.272 238.368L147.502 238.002L158.519 201.389Z" fill="#FCB970"/>
</svg>